<svg width="49" height="34" viewBox="0 0 49 34" fill="none" xmlns="http://www.w3.org/2000/svg">
<path fill-rule="evenodd" clip-rule="evenodd" d="M17.4801 26.3491C15.6948 27.1845 15.2427 28.9037 16.4702 30.1889C17.6977 31.4742 20.1401 31.8388 21.9253 31.0034C22.8717 30.5606 23.4435 29.8694 23.589 29.1261C22.1952 29.4579 20.5834 29.0925 19.7042 28.172C18.6601 27.0788 19.0447 25.6166 20.5632 24.906C20.573 24.9014 20.5829 24.8969 20.5927 24.8924C19.05 23.6505 17.421 23.0517 17.4801 26.3491Z" fill="#5358F6"/>
<path fill-rule="evenodd" clip-rule="evenodd" d="M20.1412 21.2475C26.1557 23.9631 33.5147 23.3476 36.578 19.8727C39.6412 16.3978 37.2487 11.3793 31.2342 8.66365C26.2481 6.41232 20.338 6.45038 16.7174 8.50906C17.1565 8.66563 17.5923 8.84081 18.0217 9.03468C22.8557 11.2173 25.0494 14.9435 22.9216 17.3573C20.7937 19.7712 15.15 19.9586 10.316 17.776C9.94362 17.6078 9.58693 17.4306 9.24668 17.2454C7.32258 20.9776 8.23996 24.0315 20.1412 21.2475Z" fill="#5358F6"/>
</svg>
