<svg width="174" height="49" viewBox="0 0 174 49" fill="none" xmlns="http://www.w3.org/2000/svg">
<g filter="url(#filter0_d_271_14085)">
<path d="M6.43046 0C16.6166 0 154.187 0 164.659 0C170.788 0 169.744 13.8987 167.823 25.4302C166.325 34.4276 158.286 40.5909 149.165 40.5909H32.5119C25.5854 40.5909 19.1326 37.0217 15.7438 30.9808C9.01046 18.978 -0.534535 0 6.43046 0Z" fill="#F96A02"/>
<path d="M6.43046 2H164.659C165.217 2 165.713 2.22142 166.217 3.23886C166.77 4.35658 167.135 6.13003 167.263 8.49845C167.515 13.1859 166.806 19.3649 165.851 25.1016C164.529 33.0365 157.411 38.5909 149.165 38.5909H32.5119C26.2664 38.5909 20.5027 35.3762 17.4881 30.0023C14.1281 24.0127 10.1221 16.378 7.82138 10.283C6.6531 7.18805 6.01698 4.72234 6.00033 3.13191C5.99271 2.40523 6.11977 2.1063 6.16439 2.02829C6.17468 2.02524 6.18904 2.02154 6.20811 2.01782C6.25358 2.00896 6.32575 2 6.43046 2Z" stroke="#F96A02" stroke-width="4"/>
</g>
<defs>
<filter id="filter0_d_271_14085" x="0" y="0" width="173.314" height="48.5908" filterUnits="userSpaceOnUse" color-interpolation-filters="sRGB">
<feFlood flood-opacity="0" result="BackgroundImageFix"/>
<feColorMatrix in="SourceAlpha" type="matrix" values="0 0 0 0 0 0 0 0 0 0 0 0 0 0 0 0 0 0 127 0" result="hardAlpha"/>
<feOffset dy="4"/>
<feGaussianBlur stdDeviation="2"/>
<feComposite in2="hardAlpha" operator="out"/>
<feColorMatrix type="matrix" values="0 0 0 0 0 0 0 0 0 0 0 0 0 0 0 0 0 0 0.25 0"/>
<feBlend mode="normal" in2="BackgroundImageFix" result="effect1_dropShadow_271_14085"/>
<feBlend mode="normal" in="SourceGraphic" in2="effect1_dropShadow_271_14085" result="shape"/>
</filter>
</defs>
</svg>
